<svg width="158" height="88" viewBox="0 0 158 88" fill="none" xmlns="http://www.w3.org/2000/svg">
<path fill-rule="evenodd" clip-rule="evenodd" d="M60.3365 0.25H60.1482L59.962 0.278211C56.8924 0.743311 52.4666 2.25484 49.4782 5.52642C47.9423 7.20787 46.7887 9.35807 46.4519 12.0012C46.1173 14.6272 46.612 17.5531 48.0553 20.7726C53.1754 32.1945 63.6805 61.0523 68.3984 74.3546C68.5412 75.4064 68.533 76.4884 68.3312 77.3784C68.1148 78.3327 67.7467 78.8011 67.3914 79.0191C67.0537 79.2264 66.2178 79.5204 64.3621 79.0086C62.5163 78.4996 59.9272 77.2562 56.4155 74.8037L25.5729 45.9509C24.1633 44.5529 21.6527 42.8288 18.6883 42.6782C17.1262 42.5989 15.483 42.9648 13.9406 43.9896C12.4568 44.9754 11.1978 46.482 10.1691 48.4961C7.83285 52.0664 4.65134 57.9199 2.53191 64.1583C0.433348 70.3353 -0.843584 77.5177 1.52884 83.2115L1.69744 83.6162L1.99365 83.9393C4.93597 87.1491 12.3928 89.1694 22.2642 82.3023C27.6412 78.5618 32.0385 77.4914 35.5625 77.4372C38.8395 77.3867 41.5018 78.197 43.9099 78.9299C44.1483 79.0025 44.3843 79.0743 44.6182 79.1445C45.9406 79.5412 47.3344 78.7908 47.7311 77.4683C48.1279 76.1458 47.3774 74.7521 46.0549 74.3554C45.8303 74.288 45.5948 74.2158 45.3489 74.1404C42.9621 73.409 39.5865 72.3746 35.4856 72.4377C30.8846 72.5086 25.5319 73.9382 19.4089 78.1977C11.6336 83.6067 7.22611 81.7739 5.95935 80.8092C4.57686 76.9277 5.32114 71.4917 7.26615 65.7667C9.24759 59.9345 12.2676 54.4002 14.4245 51.125L14.5062 51.0009L14.5726 50.868C15.3315 49.3503 16.0953 48.5609 16.7075 48.1542C17.2943 47.7643 17.8635 47.6428 18.4347 47.6718C19.7148 47.7368 21.1389 48.5879 22.0688 49.5178L22.0982 49.5472L22.1286 49.5757L53.1286 78.5756L53.2562 78.695L53.3992 78.7954C57.2153 81.477 60.3857 83.0987 63.0329 83.8287C65.6948 84.5628 68.0902 84.4568 70.0066 83.2807C71.9055 82.1154 72.8145 80.2171 73.2075 78.484C73.601 76.7483 73.5483 74.9114 73.3066 73.364L73.2706 73.1341L73.1929 72.9148C68.5368 59.778 57.8679 30.439 52.6178 18.7274C51.461 16.1469 51.2183 14.152 51.4118 12.6332C51.6031 11.1315 52.2433 9.91297 53.1699 8.89858C55.0595 6.82986 58.1276 5.64816 60.5331 5.25H97.1555C103.532 6.1971 105.677 8.54491 106.384 10.3491C107.177 12.3755 106.616 14.8135 105.655 16.5285L105.577 16.6688L105.517 16.818L83.0168 72.8179L82.8365 73.2665V73.75C82.8365 77.0267 83.4871 79.6695 84.9517 81.546C86.4943 83.5223 88.6359 84.2688 90.7223 84.3119C92.7274 84.3534 94.7611 83.7611 96.5166 83.0088C98.2994 82.2447 99.9702 81.2398 101.303 80.2748L101.486 80.1423L101.642 79.9792C107.277 74.0951 116.072 65.3768 124.13 58.3463C128.168 54.8238 131.96 51.7787 135.046 49.7272C136.595 48.6973 137.887 47.9711 138.893 47.5528C139.679 47.2255 140.062 47.1839 140.165 47.1727C140.184 47.1707 140.194 47.1696 140.195 47.1681C140.384 47.234 140.739 47.4245 141.251 47.9067C141.792 48.416 142.397 49.1454 143.048 50.0997C144.352 52.0099 145.683 54.5848 146.962 57.4836C149.462 63.1548 151.614 69.736 152.855 74.16C152.982 76.8138 152.427 78.467 151.7 79.5109C150.956 80.5805 149.834 81.2939 148.35 81.7017C145.367 82.5207 141.443 81.948 138.519 81.0082C127.503 72.728 115.602 73.0126 110.687 74.3359C109.353 74.6948 108.564 76.0666 108.922 77.3999C109.281 78.7331 110.653 79.5229 111.986 79.164C115.687 78.1676 126.122 77.7776 135.812 85.2315L136.138 85.4822L136.527 85.6153C139.904 86.7705 145.168 87.7605 149.674 86.5232C151.997 85.8852 154.238 84.6174 155.804 82.3671C157.365 80.1242 158.056 77.191 157.832 73.594L157.815 73.3329L157.745 73.0809C156.474 68.5041 154.212 61.5333 151.537 55.4663C150.202 52.4401 148.728 49.5525 147.178 47.2815C146.403 46.1451 145.569 45.1043 144.678 44.2659C143.803 43.4416 142.749 42.6964 141.523 42.3462C139.952 41.8973 138.271 42.3955 136.971 42.9366C135.544 43.5307 133.949 44.4522 132.277 45.5633C128.922 47.7941 124.939 51.0053 120.843 54.5786C112.712 61.6725 103.896 70.4058 98.1924 76.3524C97.1403 77.0967 95.8611 77.8499 94.5471 78.413C93.1307 79.0201 91.8415 79.334 90.8257 79.313C89.8914 79.2937 89.3142 79.0088 88.8932 78.4695C88.4239 77.8682 87.9023 76.6313 87.8423 74.2192L110.1 18.823C111.437 16.3579 112.549 12.3795 111.039 8.52589C109.419 4.38793 105.179 1.34502 97.6901 0.275126L97.5142 0.25H97.3365H60.3365ZM47.2701 21.1774C47.5863 22.5214 46.7532 23.8673 45.4091 24.1835C32.5544 27.2082 24.3261 35.8728 21.9422 39.5976C21.198 40.7606 19.6518 41.1 18.4889 40.3557C17.326 39.6114 16.9866 38.0653 17.7309 36.9024C20.6803 32.2939 29.9187 22.6918 44.264 19.3165C45.608 19.0002 46.9539 19.8334 47.2701 21.1774ZM111.621 22.2325C112.045 20.9185 113.453 20.1968 114.768 20.6207C120.164 22.3615 132.766 28.213 140.01 38.014C140.831 39.1244 140.596 40.6898 139.486 41.5104C138.376 42.3311 136.81 42.0963 135.99 40.986C129.634 32.387 118.17 26.9719 113.232 25.3793C111.918 24.9554 111.197 23.5465 111.621 22.2325Z" fill="#311B0B"/>
</svg>
