<svg width="129" height="116" viewBox="0 0 129 116" fill="none" xmlns="http://www.w3.org/2000/svg">
<path d="M112.055 70.5C106.555 71.6667 94.7012 77.6491 99.5545 89.5C104.576 101.762 118.988 96 122.554 90C126.121 84 130.554 74 115.554 65C103.554 57.8 92.8878 74.6667 89.0545 84C85.5545 92.6667 74.1545 110.5 56.5545 112.5C34.5545 115 11.0545 103.5 5.5545 76.5C4.5545 73 2.6545 65.7 3.0545 64.5C3.16907 64.1563 5.62014 62.5262 9.86631 60.5M9.86631 60.5C24.1509 53.6837 58.7512 42.3848 93.0544 60.5C79.8845 71.2743 50.0881 79.8307 9.86631 60.5ZM9.86631 60.5C5.42901 54.5 2.5544 40.9 26.5544 34.5C56.5545 26.5 74.0544 32 76.0544 36C78.0544 40 43.2426 51 26.5544 31C25.5 25.5 30.1544 21.5 50.5544 17.5C70.9544 13.5 63.0545 6.16667 56.5545 3" stroke="#311B0B" stroke-width="5" stroke-linecap="round"/>
</svg>
