<svg width="149" height="196" viewBox="0 0 149 196" fill="none" xmlns="http://www.w3.org/2000/svg">
<path d="M31.0764 138.5C40.9097 138.167 57.1528 144 58.5764 123.5C60 103 50.5532 106.183 48.5764 118C46.8938 128.058 57.6528 137 62.0764 138.5C66.5 140 77.5764 148 94.0764 133C107.276 121 94.0764 111 94.0764 111C94.0764 111 86.1847 115.528 88.0764 123.5C90.6705 134.433 113.076 144.5 128.076 144L120.576 184.5C100.576 190.667 54.0764 199.3 28.0764 184.5L18.0764 138.5C4.74305 124.667 -11.9236 92.4 28.0764 74C34.743 70.6666 50.1764 66 58.5764 74C69.0764 84 30.0764 78.5 36.0764 63.5C42.0764 48.5 53.1402 40.3161 73.5764 47.5C92.9827 54.3219 44.8892 61.1672 48.5764 36.5C48.4014 33.5167 54.0895 23.1736 70.0764 21C84.3671 19.0571 70.0764 2.00002 73.5764 3.00002C77.0764 4.00002 102.176 19.7 90.5764 36.5C103.243 41.5 123.076 56.6 101.076 77C93.6851 80.6748 79.6552 80.4344 96.5764 67.5C104.139 63.3684 124.048 64.0193 142.076 91.5C147.512 101.653 148.404 124.194 132.576 133" stroke="#311B0B" stroke-width="5" stroke-linecap="round"/>
</svg>
