<svg width="112" height="224" viewBox="0 0 112 224" fill="none" xmlns="http://www.w3.org/2000/svg">
<path fill-rule="evenodd" clip-rule="evenodd" d="M44.98 15.2884C44.6561 12.7607 45.0763 9.91534 46.4814 7.92111C47.7519 6.11802 50.1119 4.59968 54.7355 5.09211C59.1775 5.56519 61.2171 7.74525 62.1885 10.1042C63.247 12.6749 63.0979 15.6723 62.5973 17.4165C62.0423 19.3506 61.2949 20.6999 60.2545 21.5859C59.2529 22.4388 57.6916 23.1061 55.0003 23.1061C49.7536 23.1061 45.54 19.6587 44.98 15.2884ZM55.2651 0.12023C49.1389 -0.532221 44.8738 1.52189 42.3941 5.04125C40.0491 8.36947 39.5942 12.5965 40.0206 15.9239C40.9611 23.2639 47.7473 28.1061 55.0003 28.1061C58.5588 28.1061 61.3727 27.201 63.4962 25.3926C65.5809 23.6174 66.7086 21.2167 67.4033 18.7957C68.1525 16.1849 68.3783 12.0048 66.8119 8.20046C65.1582 4.18442 61.5729 0.792031 55.2651 0.12023ZM20.3663 27.2141C21.4112 26.3116 22.9899 26.4271 23.8924 27.4721C27.7445 31.9325 33.4638 35.7523 39.906 38.9347C48.4094 36.8697 56.6965 35.8269 63.9588 35.6152C69.7619 35.4461 74.9796 35.8055 79.1745 36.631C83.2238 37.4278 86.816 38.75 88.8258 40.898C90.4706 42.6558 91.5135 44.4733 91.7932 46.3504C92.0843 48.3036 91.5016 50.0046 90.5001 51.3398C88.6456 53.8125 85.3586 55.0811 82.9934 55.557C82.0433 55.7482 80.5749 55.677 79.0631 55.5306C77.421 55.3716 75.3412 55.0788 72.9531 54.653C68.1741 53.8011 62.07 52.4009 55.6213 50.4161C50.3295 48.7875 44.7093 46.7366 39.366 44.2251C35.054 45.342 30.6999 46.7349 26.4212 48.4303C21.3531 50.4384 18.6739 52.586 17.3867 54.4935C16.1783 56.2842 16.0478 58.0792 16.6268 59.9568C17.2213 61.8847 18.5813 63.9063 20.4262 65.8405C30.4523 62.0465 45.1344 60.2381 64.1803 61.6126C83.5868 63.013 94.2489 65.8137 99.7137 69.4398C102.55 71.3222 104.185 73.5586 104.705 76.0784C105.21 78.5184 104.576 80.7932 103.795 82.5988C103.073 84.2661 101.397 85.3761 99.8321 86.1352C98.134 86.9587 95.9556 87.6553 93.4514 88.2119C88.427 89.3286 81.7644 89.9525 74.2479 89.7382C59.2297 89.3099 40.4484 85.523 24.1711 75.2234C22.6193 74.2567 20.9603 73.0674 19.3687 71.7075C11.7401 75.2814 9.07211 79.8165 9.48719 83.8502C9.52027 84.1717 9.91014 85.0749 11.9195 86.3712C13.8035 87.5866 16.5985 88.8105 20.1904 89.977C27.3461 92.301 37.1648 94.2401 47.8978 95.554C58.6129 96.8657 70.1411 97.5424 80.6837 97.3768C91.2685 97.2105 100.691 96.1967 107.279 94.2123L111.144 93.0483L110.465 97.0268C101.962 146.829 77.1655 172.513 65.2337 179.281C64.0327 179.962 62.5069 179.54 61.8257 178.339C61.1446 177.138 61.566 175.613 62.767 174.931C72.8924 169.189 95.9704 146.058 104.842 100.005C98.1011 101.503 89.7043 102.236 80.7622 102.376C69.9689 102.546 58.2105 101.854 47.2902 100.517C36.3877 99.1823 26.222 97.193 18.646 94.7325C14.872 93.5068 11.6142 92.1245 9.20893 90.5727C6.92893 89.1018 4.79281 87.0768 4.51345 84.362C3.8256 77.6776 8.11331 71.981 15.6367 67.9887C13.9891 66.0388 12.5864 63.822 11.8488 61.4303C10.882 58.2954 11.0828 54.8966 13.2421 51.6967C15.3226 48.6136 19.0476 45.9737 24.5794 43.7819C27.3354 42.6898 30.1198 41.7181 32.9046 40.8601C27.9164 37.9721 23.4517 34.6115 20.1083 30.7402C19.2058 29.6952 19.3213 28.1165 20.3663 27.2141ZM24.7949 69.6195C25.4784 70.1148 26.16 70.5718 26.8217 70.9838L26.8295 70.9887L26.8373 70.9936C42.1582 80.6903 59.9984 84.3298 74.3904 84.7402C81.5802 84.9452 87.8207 84.3413 92.3666 83.331C94.6476 82.824 96.4211 82.2324 97.6505 81.6362C98.77 81.0934 99.1229 80.6989 99.1942 80.6191L99.1945 80.6187C99.2017 80.6108 99.2059 80.606 99.2078 80.6047C99.2093 80.6036 99.2093 80.6045 99.2083 80.6075C99.2077 80.6089 99.2069 80.6108 99.2059 80.6133C99.7995 79.2415 100.016 78.0899 99.809 77.0905C99.6189 76.1708 98.9812 74.9544 96.9492 73.6061C92.6766 70.771 83.2139 67.9991 63.8204 66.5996C46.8671 65.3762 33.8544 66.7699 24.7949 69.6195ZM47.7385 42.3804C50.8354 43.5967 53.9887 44.6822 57.0921 45.6374C63.3371 47.5594 69.2424 48.9127 73.8306 49.7306C76.1261 50.1398 78.0693 50.411 79.5449 50.5539C80.2841 50.6254 80.8826 50.6625 81.3362 50.6713C81.7745 50.6799 81.9707 50.659 82.0029 50.6555C82.0073 50.6551 82.0087 50.6549 82.0072 50.6552C83.8918 50.276 85.7297 49.3672 86.5001 48.3398C86.8112 47.9251 86.9161 47.5454 86.8478 47.0874C86.7682 46.5532 86.4049 45.6288 85.1748 44.3141C84.3097 43.3896 82.0895 42.3005 78.2091 41.5369C74.4743 40.8019 69.6452 40.4516 64.1045 40.6131C59.0767 40.7597 53.5198 41.3258 47.7385 42.3804ZM2.14676 92.1313C3.5136 91.936 4.77993 92.8857 4.97519 94.2526C6.61017 105.697 11.1904 123.623 19.5761 140.018C27.9899 156.467 40.0009 170.931 56.2743 176.229L58.0003 176.791V178.606V190.106V191.836L56.3811 192.446L18.122 206.849C32.2026 216.452 62.8294 226.731 97.8318 206.625L67.1117 194.943C65.8212 194.452 65.1728 193.008 65.6636 191.718C66.1544 190.427 67.5984 189.779 68.8889 190.269L104.389 203.769L109.028 205.533L104.849 208.211C62.5416 235.321 25.0439 219.572 11.3855 208.015L8.13687 205.266L12.1195 203.766L53.0003 188.376V180.386C35.7823 174.064 23.5002 158.67 15.1246 142.295C6.44358 125.323 1.7238 106.848 0.0254447 94.9597C-0.169818 93.5928 0.77993 92.3265 2.14676 92.1313Z" fill="#311B0B"/>
</svg>
