<svg width="18" height="18" viewBox="0 0 18 18" fill="none" xmlns="http://www.w3.org/2000/svg">
<mask id="mask0_91_273" style="mask-type:alpha" maskUnits="userSpaceOnUse" x="0" y="0" width="18" height="18">
<rect width="18" height="18" fill="#D9D9D9"/>
</mask>
<g mask="url(#mask0_91_273)">
<path d="M8.14693 9.85342H4.45074C4.21133 9.85342 4.00928 9.77108 3.84461 9.60641C3.67993 9.44173 3.5976 9.23969 3.5976 9.00029C3.5976 8.76089 3.67993 8.55886 3.84461 8.39418C4.00928 8.22951 4.21133 8.14717 4.45074 8.14717H8.14693V4.45098C8.14693 4.21157 8.22926 4.00953 8.39394 3.84485C8.55861 3.68018 8.76065 3.59784 9.00005 3.59784C9.23945 3.59784 9.44149 3.68018 9.60616 3.84485C9.77084 4.00953 9.85318 4.21157 9.85318 4.45098V8.14717H13.5494C13.7888 8.14717 13.9908 8.22951 14.1555 8.39418C14.3202 8.55886 14.4025 8.76089 14.4025 9.00029C14.4025 9.23969 14.3202 9.44173 14.1555 9.60641C13.9908 9.77108 13.7888 9.85342 13.5494 9.85342H9.85318V13.5496C9.85318 13.789 9.77084 13.9911 9.60616 14.1557C9.44149 14.3204 9.23945 14.4028 9.00005 14.4028C8.76065 14.4028 8.55861 14.3204 8.39394 14.1557C8.22926 13.9911 8.14693 13.789 8.14693 13.5496V9.85342Z" fill="#F5F5F5"/>
</g>
</svg>
