<svg width="18" height="18" viewBox="0 0 18 18" fill="none" xmlns="http://www.w3.org/2000/svg">
<mask id="mask0_91_269" style="mask-type:alpha" maskUnits="userSpaceOnUse" x="0" y="0" width="18" height="18">
<rect width="18" height="18" fill="#D9D9D9"/>
</mask>
<g mask="url(#mask0_91_269)">
<path d="M8.99563 15.3784C8.79373 15.3784 8.59094 15.3419 8.38727 15.2689C8.18361 15.196 8.00256 15.0818 7.84414 14.9263L6.54141 13.7361C5.22239 12.5326 4.02702 11.3287 2.95528 10.1245C1.88353 8.92029 1.34766 7.583 1.34766 6.11263C1.34766 4.89293 1.75486 3.87434 2.56927 3.05688C3.38367 2.23942 4.40079 1.83069 5.62063 1.83069C6.27716 1.83069 6.89767 1.96459 7.48217 2.23239C8.06668 2.50019 8.57117 2.87186 8.99563 3.34739C9.42008 2.87186 9.92456 2.50019 10.5091 2.23239C11.0936 1.96459 11.7141 1.83069 12.3706 1.83069C13.5916 1.83069 14.6112 2.23942 15.4296 3.05688C16.2479 3.87434 16.657 4.89293 16.657 6.11263C16.657 7.583 16.1221 8.92342 15.0521 10.1339C13.9821 11.3443 12.7751 12.5528 11.4311 13.7594L10.1516 14.9308C9.99318 15.0863 9.81139 15.1997 9.60622 15.2712C9.40106 15.3427 9.19753 15.3784 8.99563 15.3784ZM8.25174 5.08505C7.90718 4.59048 7.52641 4.20881 7.10942 3.94006C6.69243 3.67131 6.19657 3.53694 5.62185 3.53694C4.88815 3.53694 4.27674 3.78171 3.78761 4.27126C3.29849 4.7608 3.05392 5.37459 3.05392 6.11263C3.05392 6.75689 3.28292 7.44141 3.74092 8.1662C4.19894 8.89099 4.74669 9.59409 5.38417 10.2755C6.02167 10.9569 6.67774 11.595 7.35238 12.1897C8.02701 12.7844 8.57475 13.2738 8.99563 13.6579C9.41764 13.2704 9.96658 12.7794 10.6424 12.185C11.3183 11.5906 11.9756 10.9528 12.6142 10.2717C13.2529 9.59055 13.802 8.88884 14.2615 8.16656C14.721 7.44428 14.9508 6.75964 14.9508 6.11263C14.9508 5.37459 14.7053 4.7608 14.2142 4.27126C13.7232 3.78171 13.1094 3.53694 12.3728 3.53694C11.7958 3.53694 11.2996 3.67131 10.8841 3.94006C10.4686 4.20881 10.0886 4.59048 9.744 5.08505C9.65262 5.21901 9.54167 5.31949 9.41113 5.38648C9.28059 5.45345 9.14209 5.48694 8.99563 5.48694C8.84915 5.48694 8.71121 5.45345 8.58178 5.38648C8.45236 5.31949 8.34234 5.21901 8.25174 5.08505Z" fill="#311B0B"/>
</g>
</svg>
