<svg width="110" height="143" viewBox="0 0 110 143" fill="none" xmlns="http://www.w3.org/2000/svg">
<path fill-rule="evenodd" clip-rule="evenodd" d="M71.2135 0.0876511C66.554 -0.171209 59.4874 0.0772107 53.4389 1.73525C50.4192 2.56302 47.468 3.79111 45.1981 5.6359C42.8674 7.53003 41.2111 10.1253 41.0768 13.4839C40.8094 20.1677 46.1165 23.8303 50.7715 25.8469C53.1947 26.8966 55.7382 27.6403 57.8962 28.2026C58.836 28.4475 59.6577 28.6483 60.3712 28.8225L60.3712 28.8226L60.3713 28.8226C61.4009 29.0741 62.205 29.2705 62.8129 29.465C65.025 30.1728 68.1398 31.2628 70.5207 33.0337C72.8153 34.7404 74.1016 36.7938 73.6106 39.6622C73.3872 40.9676 72.9402 41.818 72.4324 42.4059C71.9173 43.0023 71.2296 43.4551 70.3453 43.7925C68.4748 44.5061 66.0938 44.5839 63.5748 44.5839C60.8731 44.5839 50.0277 45.595 39.7507 48.3867C34.6118 49.7826 29.4272 51.6721 25.4359 54.2186C21.4965 56.7319 18.1958 60.2387 18.0023 64.982C17.9211 66.9737 18.5012 68.7316 19.5067 70.2492C18.8218 71.1154 18.2417 72.0075 17.755 72.9253C15.7483 76.709 15.5079 80.6052 15.5753 84.1317C15.6668 88.9165 15.9624 97.3704 19.5726 105.31C23.2548 113.408 30.3343 120.852 43.5786 123.534C64.4635 127.764 78.5431 116.296 83.1463 109.484L83.2688 109.302L83.3579 109.103C85.6494 103.968 86.7007 100.714 87.2225 97.7207C87.565 95.7553 87.674 93.8609 87.7957 91.745V91.7449L87.7957 91.7446C87.851 90.7824 87.909 89.7744 87.9928 88.6931C88.0977 87.3392 88.8962 86.0928 90.4034 85.0974C91.9278 84.0905 94.0141 83.4726 96.1539 83.4429C98.2952 83.4132 100.259 83.9725 101.656 85.0374C102.979 86.0458 103.979 87.6409 104.077 90.18C104.16 92.3428 103.672 93.7508 103.017 94.6964C102.353 95.6541 101.368 96.3545 100.098 96.8304C97.4605 97.8185 94.0218 97.6695 91.6091 97.1417C90.2603 96.8466 88.9277 97.7009 88.6326 99.0497C88.3376 100.399 89.1918 101.731 90.5406 102.026C93.4613 102.665 97.9725 102.966 101.852 101.513C103.84 100.768 105.755 99.5242 107.127 97.5434C108.507 95.5504 109.19 93.0251 109.073 89.9879C108.921 86.027 107.251 83.0161 104.688 81.0614C102.198 79.1631 99.0597 78.4021 96.0845 78.4434C93.1078 78.4847 90.0641 79.3294 87.6478 80.9252C85.2144 82.5324 83.2617 85.029 83.0077 88.3068C82.9025 89.6648 82.8383 90.7971 82.7812 91.802L82.7812 91.8023C82.6721 93.7255 82.5895 95.1824 82.2967 96.8622C81.8803 99.2516 81.0247 102.037 78.8837 106.859C75.0175 112.416 62.8691 122.34 44.5711 118.634C33.0293 116.296 27.1999 110.005 24.1242 103.241C20.9765 96.318 20.6652 88.7819 20.5744 84.0361C20.5118 80.7632 20.7714 77.9094 22.1722 75.268C22.4337 74.7748 22.7415 74.2775 23.1052 73.7777C25.1256 75.1681 27.6117 76.2835 30.3154 77.1827C37.105 79.4409 45.9915 80.5696 54.5366 80.8095C63.0844 81.0496 71.544 80.4068 77.511 78.983C80.4255 78.2876 83.083 77.3311 84.8087 75.958C85.6964 75.2517 86.5555 74.2619 86.8669 72.9324C87.1965 71.5255 86.8071 70.2033 86.0804 69.1132C83.8508 65.7689 79.6787 63.5513 75.0831 62.071C70.3899 60.5593 64.7923 59.6705 59.1397 59.2974C53.4752 58.9235 47.6626 59.0613 42.5065 59.6494C37.4021 60.2316 32.7412 61.2767 29.4962 62.8286C27.0185 64.0136 24.9465 65.2758 23.224 66.6137C23.047 66.1366 22.9787 65.662 22.9982 65.1859C23.0921 62.8829 24.7038 60.6166 28.1252 58.4337C31.4947 56.284 36.1193 54.5543 41.0614 53.2118C50.9466 50.5266 61.3511 49.5839 63.5748 49.5839C65.9812 49.5839 69.2697 49.5543 72.1274 48.4641C73.6073 47.8995 75.0485 47.0264 76.2164 45.6742C77.3916 44.3135 78.1818 42.5927 78.539 40.5057C79.4571 35.1415 76.7061 31.403 73.5048 29.0218C70.3898 26.7048 66.55 25.4111 64.3367 24.7029C63.5843 24.4621 62.4756 24.1898 61.2715 23.8941L61.2715 23.8941C60.5816 23.7246 59.8604 23.5475 59.1569 23.3642C57.0875 22.825 54.8326 22.1571 52.759 21.2589C48.4204 19.3793 45.9402 16.9999 46.0728 13.6837C46.1385 12.0423 46.8947 10.7001 48.3515 9.51608C49.8691 8.28274 52.0804 7.29209 54.7607 6.55736C60.1122 5.09039 66.5956 4.83881 70.9361 5.07995C72.3147 5.15654 73.4944 4.10106 73.571 2.72248C73.6475 1.34389 72.5921 0.164239 71.2135 0.0876511ZM31.8934 72.4382C29.8592 71.7617 28.1446 71.0065 26.7783 70.1945C28.09 69.233 29.6922 68.2773 31.6535 67.3393C34.1586 66.1412 38.1758 65.1758 43.0731 64.6172C47.9186 64.0646 53.4311 63.9314 58.8104 64.2865C64.2016 64.6424 69.3666 65.4826 73.5501 66.8302C77.8124 68.2031 80.625 69.9655 81.9034 71.8617C81.8544 71.9111 81.7871 71.9725 81.6956 72.0454C80.8693 72.7028 79.1171 73.4595 76.3506 74.1196C70.9558 75.4068 62.9686 76.0443 54.6769 75.8115C46.3825 75.5786 38.0367 74.4815 31.8934 72.4382ZM17.8443 119.94C19.1916 119.638 20.0394 118.301 19.7377 116.954C19.4361 115.606 18.0993 114.759 16.7519 115.06C13.8522 115.71 10.6135 116.673 7.80244 117.924C5.11937 119.117 2.32676 120.783 0.924738 123.088C0.161584 124.343 -0.222295 125.846 0.134405 127.474C0.477134 129.037 1.43558 130.403 2.73209 131.591C5.27198 133.92 9.74934 136.153 16.5182 138.375C30.3841 142.928 46.4835 143.238 60.8385 141.851C75.2197 140.462 88.0764 137.347 95.5805 134.874L95.6592 134.848L95.736 134.817C97.627 134.052 99.6945 132.97 101.331 131.622C102.875 130.35 104.569 128.393 104.523 125.842C104.474 123.154 102.547 121.066 99.8261 119.479C97.0455 117.858 92.8322 116.38 86.836 115.059C85.4876 114.761 84.1537 115.614 83.8566 116.962C83.5595 118.31 84.4117 119.644 85.7601 119.941C91.5639 121.22 95.1881 122.563 97.3075 123.799C99.4866 125.069 99.5224 125.875 99.5235 125.933C99.527 126.128 99.3589 126.768 98.1521 127.763C97.0565 128.665 95.518 129.505 93.9354 130.152C86.7601 132.509 74.3076 135.527 60.3577 136.874C46.3293 138.229 31.0121 137.872 18.078 133.625C11.4469 131.447 7.82841 129.48 6.111 127.906C5.27887 127.143 5.0683 126.631 5.01845 126.403C4.98258 126.24 4.98255 126.038 5.19648 125.687C5.74863 124.779 7.2831 123.627 9.8344 122.492C12.2577 121.414 15.1607 120.54 17.8443 119.94Z" fill="#311B0B"/>
</svg>
