<svg width="24" height="24" viewBox="0 0 24 24" fill="none" xmlns="http://www.w3.org/2000/svg">
<mask id="mask0_49_283" style="mask-type:alpha" maskUnits="userSpaceOnUse" x="0" y="0" width="24" height="24">
<rect width="24" height="24" fill="#D9D9D9"/>
</mask>
<g mask="url(#mask0_49_283)">
<path d="M4.13752 18.5859C3.81831 18.5859 3.54892 18.4761 3.32935 18.2566C3.10978 18.037 3 17.7676 3 17.4484C3 17.1292 3.10978 16.8598 3.32935 16.6402C3.54892 16.4207 3.81831 16.3109 4.13752 16.3109H20.269C20.5882 16.3109 20.8576 16.4207 21.0772 16.6402C21.2968 16.8598 21.4065 17.1292 21.4065 17.4484C21.4065 17.7676 21.2968 18.037 21.0772 18.2566C20.8576 18.4761 20.5882 18.5859 20.269 18.5859H4.13752ZM4.13752 13.4305C3.81831 13.4305 3.54892 13.3207 3.32935 13.1011C3.10978 12.8815 3 12.6122 3 12.293C3 11.9738 3.10978 11.7044 3.32935 11.4848C3.54892 11.2652 3.81831 11.1555 4.13752 11.1555H20.269C20.5882 11.1555 20.8576 11.2652 21.0772 11.4848C21.2968 11.7044 21.4065 11.9738 21.4065 12.293C21.4065 12.6122 21.2968 12.8815 21.0772 13.1011C20.8576 13.3207 20.5882 13.4305 20.269 13.4305H4.13752ZM4.13752 8.27503C3.81831 8.27503 3.54892 8.16524 3.32935 7.94568C3.10978 7.72611 3 7.45672 3 7.1375C3 6.8183 3.10978 6.54892 3.32935 6.32935C3.54892 6.10978 3.81831 6 4.13752 6H20.269C20.5882 6 20.8576 6.10978 21.0772 6.32935C21.2968 6.54892 21.4065 6.8183 21.4065 7.1375C21.4065 7.45672 21.2968 7.72611 21.0772 7.94568C20.8576 8.16524 20.5882 8.27503 20.269 8.27503H4.13752Z" fill="#311B0B"/>
</g>
</svg>
