<svg width="15" height="15" viewBox="0 0 15 15" fill="none" xmlns="http://www.w3.org/2000/svg">
<mask id="mask0_100_282" style="mask-type:alpha" maskUnits="userSpaceOnUse" x="0" y="0" width="15" height="15">
<rect width="15" height="15" fill="#D9D9D9"/>
</mask>
<g mask="url(#mask0_100_282)">
<path d="M9.63435 8.32809H3.02771C2.79764 8.32809 2.6021 8.24759 2.44109 8.08658C2.28009 7.92557 2.19958 7.73003 2.19958 7.49995C2.19958 7.26988 2.28009 7.07434 2.44109 6.91333C2.6021 6.75232 2.79764 6.67181 3.02771 6.67181H9.63435L8.17988 5.21734C8.01956 5.05702 7.94053 4.86409 7.94279 4.63855C7.94506 4.41299 8.02409 4.22006 8.17988 4.05973C8.34022 3.8994 8.53429 3.8181 8.7621 3.81584C8.9899 3.81357 9.18397 3.8926 9.34431 4.05294L12.2125 6.91231C12.2927 6.99248 12.3531 7.08374 12.3939 7.18609C12.4347 7.28845 12.455 7.39307 12.455 7.49995C12.455 7.60684 12.4347 7.71146 12.3939 7.81381C12.3531 7.91617 12.2927 8.00743 12.2125 8.08759L9.34431 10.947C9.18397 11.1073 8.9899 11.1863 8.7621 11.1841C8.53429 11.1818 8.34022 11.1005 8.17988 10.9402C8.02409 10.7798 7.94506 10.5869 7.94279 10.3614C7.94053 10.1358 8.01956 9.94289 8.17988 9.78256L9.63435 8.32809Z" fill="#A67959"/>
</g>
</svg>
