<svg width="11" height="11" viewBox="0 0 11 11" fill="none" xmlns="http://www.w3.org/2000/svg">
<path d="M4.55544 0.717388C4.86673 -0.178172 6.13327 -0.178172 6.44456 0.717388L7.03488 2.41566C7.17221 2.81073 7.5409 3.0786 7.95907 3.08713L9.75665 3.12376C10.7046 3.14308 11.096 4.34762 10.3404 4.92042L8.90768 6.00665C8.57438 6.25934 8.43356 6.69276 8.55467 7.0931L9.07532 8.81401C9.34987 9.72151 8.32522 10.466 7.54698 9.92441L6.07118 8.89746C5.72786 8.65856 5.27214 8.65856 4.92882 8.89746L3.45302 9.92441C2.67478 10.466 1.65013 9.72151 1.92468 8.81401L2.44533 7.0931C2.56644 6.69276 2.42562 6.25934 2.09232 6.00665L0.65958 4.92042C-0.0959529 4.34762 0.295428 3.14308 1.24335 3.12376L3.04093 3.08713C3.4591 3.0786 3.82779 2.81073 3.96512 2.41566L4.55544 0.717388Z" fill="#F7E062"/>
</svg>
